<svg xmlns="http://www.w3.org/2000/svg" viewBox="0 0 64 64">
  <defs>
    <linearGradient id="bg" x1="0%" y1="0%" x2="100%" y2="100%">
      <stop offset="0%" stop-color="#6366f1"/>
      <stop offset="100%" stop-color="#8b5cf6"/>
    </linearGradient>
  </defs>
  <!-- Rounded square background -->
  <rect width="64" height="64" rx="14" fill="url(#bg)"/>
  <!-- Clipboard body -->
  <rect x="16" y="18" width="32" height="36" rx="4" fill="white" opacity="0.95"/>
  <!-- Clipboard clip -->
  <rect x="24" y="13" width="16" height="10" rx="3" fill="white" opacity="0.95"/>
  <rect x="27" y="11" width="10" height="6" rx="2" fill="#6366f1"/>
  <!-- Lines on clipboard -->
  <rect x="21" y="30" width="22" height="2.5" rx="1.25" fill="#6366f1" opacity="0.5"/>
  <rect x="21" y="36" width="16" height="2.5" rx="1.25" fill="#6366f1" opacity="0.5"/>
  <rect x="21" y="42" width="19" height="2.5" rx="1.25" fill="#6366f1" opacity="0.5"/>
  <!-- Sync arrows -->
  <g transform="translate(38, 38)" fill="none" stroke="#6366f1" stroke-width="2" stroke-linecap="round">
    <circle cx="10" cy="10" r="9" fill="white" stroke="none"/>
    <path d="M6 10 A4 4 0 0 1 14 10" stroke-width="2"/>
    <path d="M14 10 A4 4 0 0 1 6 10" stroke-width="2"/>
    <path d="M14 7 L14 10 L17 10" stroke-width="1.5"/>
    <path d="M6 13 L6 10 L3 10" stroke-width="1.5"/>
  </g>
</svg>
